<svg width="25" height="24" viewBox="0 0 25 24" fill="none" xmlns="http://www.w3.org/2000/svg">
<g id="Facebook">
<path id="Vector" d="M16.8262 6.00873L13.8262 6.00891C13.2739 6.00894 12.8262 6.45668 12.8263 7.00896L12.8265 10.009L16.8265 10.0087C16.9401 10.0062 17.0481 10.0591 17.1157 10.1506C17.1833 10.2421 17.2023 10.3607 17.1665 10.4687L16.4266 12.6688C16.3584 12.8707 16.1697 13.0072 15.9566 13.0088L12.8266 13.009L12.8271 20.509C12.8271 20.7851 12.6032 21.009 12.3271 21.009L9.82708 21.0091C9.55094 21.0092 9.32707 20.7853 9.32705 20.5092L9.32662 13.0092L7.82662 13.0092C7.55048 13.0093 7.32661 12.7854 7.32659 12.5093L7.32648 10.5093C7.32646 10.2332 7.55031 10.0093 7.82645 10.0092L9.32645 10.0092L9.32628 7.00916C9.32615 4.80002 11.1169 3.00906 13.326 3.00893L16.826 3.00873C17.1021 3.00872 17.3261 3.23257 17.3261 3.50871L17.3262 5.50871C17.3262 5.78485 17.1023 6.00872 16.8262 6.00873Z" fill="white" fill-opacity="0.7"/>
</g>
</svg>
