<svg width="57" height="25" viewBox="0 0 57 25" fill="none" xmlns="http://www.w3.org/2000/svg">
<g id="Group">
<g id="Group_2">
<path id="Vector" d="M10.7619 16.5138C9.65034 17.7363 8.25034 18.3363 6.53823 18.3363C5.87118 18.3363 5.13766 18.1583 4.35963 17.8028C3.5816 17.4473 3.00357 16.9577 2.62555 16.3358V18.1583H0.0475159V0.064209H2.69259V8.04449C3.07062 7.42196 3.62611 6.93294 4.40414 6.59942C5.18217 6.24393 5.91569 6.0659 6.6047 6.0659C8.33879 6.0659 9.73935 6.68844 10.8058 7.93294C11.8954 9.17801 12.4284 10.6006 12.4284 12.1786C12.4289 13.8467 11.8734 15.2913 10.7619 16.5138ZM2.64808 12.2011C2.64808 13.2456 2.9816 14.1352 3.62611 14.8687C4.29259 15.5803 5.15963 15.9358 6.2047 15.9358C7.24921 15.9358 8.11625 15.5803 8.76076 14.8687C9.4278 14.1352 9.76133 13.2462 9.76133 12.2011C9.76133 11.156 9.4278 10.267 8.76076 9.53351C8.11625 8.79999 7.24921 8.44393 6.2047 8.44393C5.15963 8.44393 4.29259 8.79942 3.62611 9.53351C2.9816 10.2676 2.64808 11.1566 2.64808 12.2011Z" fill="white"/>
<path id="Vector_2" d="M16.6515 13.0017C16.6734 13.8907 17.0295 14.6242 17.7185 15.2248C18.4075 15.8028 19.2081 16.0918 20.1191 16.0918C21.6087 16.0918 22.6757 15.4693 23.3202 14.2468L25.2318 15.5138C24.2312 17.3589 22.2977 18.3814 20.1636 18.3814C18.4075 18.3814 16.918 17.8034 15.718 16.6253C14.5399 15.4473 13.9394 13.9577 13.9394 12.2017C13.9394 10.4901 14.5174 9.04507 15.6509 7.84451C16.7844 6.64395 18.207 6.04395 19.9191 6.04395C21.7196 6.04395 23.1422 6.6 24.1647 7.73352C25.1872 8.86761 25.6988 10.3346 25.6988 12.1792C25.6988 12.5346 25.6763 12.8017 25.6543 13.0017H16.6515ZM16.7844 11.0011H23.0087C22.9196 9.33352 21.6081 8.31155 19.9191 8.31155C18.2965 8.31155 17.0289 9.37859 16.7844 11.0011Z" fill="white"/>
<path id="Vector_3" d="M28.0537 1.22019C28.7427 0.508636 29.8098 0.508636 30.4988 1.22019C31.1878 1.9092 31.1878 2.97624 30.4988 3.66526C29.8098 4.35427 28.7427 4.35427 28.0537 3.66526C27.3647 2.97624 27.3647 1.9092 28.0537 1.22019ZM30.6098 18.1588H27.9647V6.28836H30.6098V18.1588Z" fill="white"/>
<path id="Vector_4" d="M36.5224 6.28846V19.5594C36.5224 22.5606 35.0773 24.0502 32.2097 24.0502C31.7872 24.0502 31.3872 23.9837 31.0097 23.8721V21.56C31.2097 21.6265 31.4323 21.649 31.6762 21.649C33.2548 21.649 33.8548 21.0485 33.8548 19.2704V6.28846H36.5224ZM36.9449 2.44282C36.9449 3.39888 36.1449 4.17635 35.1663 4.17635C34.2103 4.17635 33.4323 3.39832 33.4323 2.44282C33.4323 1.48677 34.2103 0.686768 35.1663 0.686768C36.1444 0.686768 36.9449 1.48677 36.9449 2.44282Z" fill="white"/>
<path id="Vector_5" d="M41.5236 13.0017C41.5461 13.8907 41.9016 14.6242 42.5906 15.2248C43.2796 15.8028 44.0796 16.0918 44.9912 16.0918C46.4802 16.0918 47.5472 15.4693 48.1923 14.2468L50.1039 15.5138C49.1039 17.3589 47.1698 18.3814 45.0357 18.3814C43.2796 18.3814 41.7901 17.8034 40.5901 16.6253C39.412 15.4473 38.8115 13.9577 38.8115 12.2017C38.8115 10.4901 39.3895 9.04507 40.523 7.84451C41.6565 6.64395 43.0796 6.04395 44.7912 6.04395C46.5917 6.04395 48.0143 6.6 49.0368 7.73352C50.0594 8.86761 50.5703 10.3346 50.5703 12.1792C50.5703 12.5346 50.5484 12.8017 50.5258 13.0017H41.5236ZM41.6571 11.0011H47.8813C47.7923 9.33352 46.4808 8.31155 44.7912 8.31155C43.1686 8.31155 41.9016 9.37859 41.6571 11.0011Z" fill="white"/>
</g>
<path id="Vector_6" d="M56.3855 16.48C56.3855 16.9898 55.9962 17.3656 55.6622 17.6997C55.3281 18.0338 54.9523 18.3104 54.4424 18.3104C53.9326 18.3104 53.5929 17.9977 53.2588 17.6636C52.9247 17.3295 52.6954 16.9898 52.6954 16.48C52.6954 15.9701 52.6588 15.3645 52.9929 15.0304C53.3269 14.6963 53.9326 14.5149 54.4424 14.5149C54.9523 14.5149 55.4103 14.8439 55.7444 15.178C56.0785 15.5121 56.3855 15.9701 56.3855 16.48Z" fill="white"/>
</g>
</svg>
