<svg width="25" height="24" viewBox="0 0 25 24" fill="none" xmlns="http://www.w3.org/2000/svg">
<g id="Instagram">
<path id="Vector" fill-rule="evenodd" clip-rule="evenodd" d="M16.3284 3.00878L8.32837 3.00924C5.56695 3.00939 3.3285 5.2481 3.32866 8.00952L3.32911 16.0095C3.32927 18.7709 5.56798 21.0094 8.3294 21.0092L16.3294 21.0088C19.0908 21.0086 21.3293 18.7699 21.3291 16.0085L21.3287 8.00849C21.3285 5.24707 19.0898 3.00862 16.3284 3.00878ZM19.5791 16.0086C19.5737 17.8012 18.1219 19.2532 16.3293 19.2588L8.3293 19.2592C6.53665 19.2538 5.0847 17.802 5.07911 16.0094L5.07866 8.00942C5.08404 6.21677 6.53582 4.76483 8.32847 4.75924L16.3285 4.75878C18.1211 4.76417 19.5731 6.21594 19.5787 8.00859L19.5791 16.0086ZM17.0787 8.25874C17.631 8.2587 18.0786 7.81096 18.0786 7.25868C18.0786 6.7064 17.6309 6.2587 17.0786 6.25874C16.5263 6.25877 16.0786 6.70651 16.0786 7.25879C16.0786 7.81107 16.5264 8.25877 17.0787 8.25874ZM12.3286 7.50901C9.84335 7.50915 7.82874 9.52398 7.82888 12.0093C7.82903 14.4946 9.84386 16.5091 12.3291 16.509C14.8144 16.5089 16.829 14.494 16.8289 12.0087C16.8315 10.8144 16.3581 9.66835 15.5136 8.8239C14.6691 7.97946 13.5229 7.50628 12.3286 7.50901ZM9.57888 12.0092C9.57897 13.528 10.8102 14.7591 12.329 14.759C13.8478 14.7589 15.079 13.5276 15.0789 12.0088C15.0788 10.49 13.8475 9.25892 12.3287 9.25901C10.8099 9.25909 9.5788 10.4904 9.57888 12.0092Z" fill="white" fill-opacity="0.7"/>
</g>
</svg>
