<svg width="25" height="24" viewBox="0 0 25 24" fill="none" xmlns="http://www.w3.org/2000/svg">
<g id="LinkedIn">
<path id="Vector" fill-rule="evenodd" clip-rule="evenodd" d="M5.33289 3.00941L19.3329 3.00861C20.4375 3.00854 21.3329 3.90392 21.333 5.00849L21.3338 19.0085C21.3339 20.1131 20.4385 21.0085 19.3339 21.0086L5.33391 21.0094C4.22934 21.0095 3.33386 20.1141 3.3338 19.0095L3.333 5.00952C3.33294 3.90495 4.22832 3.00947 5.33289 3.00941ZM8.33374 18.0092C8.60988 18.0092 8.83373 17.7853 8.83371 17.5092L8.83331 10.5092C8.8333 10.2331 8.60943 10.0092 8.33329 10.0092L6.83329 10.0093C6.55715 10.0093 6.3333 10.2332 6.33331 10.5093L6.33371 17.5093C6.33373 17.7855 6.5576 18.0093 6.83374 18.0093L8.33374 18.0092ZM7.58323 9.00928C6.7548 9.00933 6.08319 8.33779 6.08314 7.50936C6.0831 6.68093 6.75463 6.00933 7.58306 6.00928C8.41149 6.00923 9.0831 6.68076 9.08314 7.50919C9.08319 8.33762 8.41166 9.00923 7.58323 9.00928ZM17.8337 18.0087C18.1098 18.0087 18.3337 17.7848 18.3337 17.5087L18.3335 12.9087C18.3659 11.3195 17.1909 9.96325 15.6133 9.76882C14.5103 9.66813 13.4416 10.1833 12.8333 11.109L12.8333 10.509C12.8333 10.2329 12.6094 10.009 12.3333 10.009L10.8333 10.0091C10.5572 10.0091 10.3333 10.233 10.3333 10.5091L10.3337 17.5091C10.3337 17.7852 10.5576 18.0091 10.8337 18.0091L12.3337 18.009C12.6098 18.009 12.8337 17.7851 12.8337 17.509L12.8335 13.759C12.8335 12.9306 13.505 12.2589 14.3334 12.2589C15.1618 12.2588 15.8335 12.9304 15.8335 13.7588L15.8337 17.5088C15.8337 17.7849 16.0576 18.0088 16.3337 18.0088L17.8337 18.0087Z" fill="white" fill-opacity="0.7"/>
</g>
</svg>
