<svg width="56" height="24" viewBox="0 0 56 24" fill="none" xmlns="http://www.w3.org/2000/svg">
<g id="Group">
<g id="Group_2">
<path id="Vector" d="M10.6926 16.4184C9.58883 17.6324 8.19862 18.2282 6.49848 18.2282C5.8361 18.2282 5.10771 18.0514 4.33512 17.6984C3.56253 17.3454 2.98855 16.8592 2.61316 16.2416V18.0514H0.0531616V0.0838623H2.67974V8.00834C3.05512 7.39016 3.60673 6.90456 4.37932 6.57337C5.15191 6.22037 5.8803 6.04358 6.56449 6.04358C8.28645 6.04358 9.67722 6.66177 10.7362 7.89757C11.8182 9.13393 12.3474 10.5465 12.3474 12.1135C12.348 13.77 11.7964 15.2044 10.6926 16.4184ZM2.63554 12.1359C2.63554 13.1731 2.96673 14.0565 3.60673 14.7848C4.26855 15.4914 5.12953 15.8444 6.16729 15.8444C7.20449 15.8444 8.06547 15.4914 8.70547 14.7848C9.36785 14.0565 9.69904 13.1737 9.69904 12.1359C9.69904 11.0981 9.36785 10.2153 8.70547 9.48694C8.06547 8.75855 7.20449 8.40498 6.16729 8.40498C5.12953 8.40498 4.26855 8.75799 3.60673 9.48694C2.96673 10.2159 2.63554 11.0987 2.63554 12.1359Z" fill="#CE7328"/>
<path id="Vector_2" d="M16.541 12.9308C16.5628 13.8136 16.9164 14.542 17.6006 15.1384C18.2848 15.7123 19.0797 15.9993 19.9843 15.9993C21.4635 15.9993 22.5231 15.3812 23.1631 14.1672L25.0613 15.4254C24.0677 17.2575 22.1477 18.2729 20.0285 18.2729C18.2848 18.2729 16.8056 17.6989 15.614 16.5291C14.4442 15.3593 13.8478 13.8802 13.8478 12.1364C13.8478 10.4368 14.4218 9.00187 15.5474 7.8097C16.673 6.61753 18.0856 6.02173 19.7857 6.02173C21.5737 6.02173 22.9863 6.5739 24.0017 7.69949C25.0171 8.82564 25.525 10.2824 25.525 12.114C25.525 12.467 25.5027 12.7322 25.4808 12.9308H16.541ZM16.673 10.9442H22.8537C22.7653 9.2883 21.4629 8.27347 19.7857 8.27347C18.1746 8.27347 16.9158 9.33305 16.673 10.9442Z" fill="#CE7328"/>
<path id="Vector_3" d="M27.8635 1.23183C28.5477 0.525261 29.6073 0.525261 30.2915 1.23183C30.9757 1.91603 30.9757 2.97561 30.2915 3.65981C29.6073 4.344 28.5477 4.344 27.8635 3.65981C27.1793 2.97561 27.1793 1.91603 27.8635 1.23183ZM30.4017 18.052H27.7751V6.26456H30.4017V18.052Z" fill="#CE7328"/>
<path id="Vector_4" d="M36.273 6.26454V19.4427C36.273 22.4229 34.838 23.902 31.9905 23.902C31.5709 23.902 31.1737 23.836 30.7989 23.7252V21.4293C30.9975 21.4953 31.2184 21.5177 31.4607 21.5177C33.0282 21.5177 33.624 20.9213 33.624 19.1557V6.26454H36.273ZM36.6926 2.4458C36.6926 3.39517 35.8982 4.1672 34.9264 4.1672C33.977 4.1672 33.2045 3.39461 33.2045 2.4458C33.2045 1.49643 33.977 0.702026 34.9264 0.702026C35.8976 0.702026 36.6926 1.49643 36.6926 2.4458Z" fill="#CE7328"/>
<path id="Vector_5" d="M41.2392 12.9308C41.2615 13.8136 41.6146 14.542 42.2987 15.1384C42.9829 15.7123 43.7773 15.9993 44.6825 15.9993C46.1611 15.9993 47.2207 15.3812 47.8613 14.1672L49.7594 15.4254C48.7664 17.2575 46.8459 18.2729 44.7267 18.2729C42.9829 18.2729 41.5038 17.6989 40.3122 16.5291C39.1424 15.3593 38.546 13.8802 38.546 12.1364C38.546 10.4368 39.12 9.00187 40.2456 7.8097C41.3712 6.61753 42.7843 6.02173 44.4839 6.02173C46.2719 6.02173 47.6845 6.5739 48.6999 7.69949C49.7153 8.82564 50.2227 10.2824 50.2227 12.114C50.2227 12.467 50.2008 12.7322 50.1785 12.9308H41.2392ZM41.3718 10.9442H47.5525C47.4641 9.2883 46.1617 8.27347 44.4839 8.27347C42.8727 8.27347 41.6146 9.33305 41.3718 10.9442Z" fill="#CE7328"/>
</g>
<path id="Vector_6" d="M55.9972 16.3848C55.9972 16.8911 55.6106 17.2642 55.2789 17.596C54.9471 17.9277 54.574 18.2024 54.0677 18.2024C53.5614 18.2024 53.224 17.8919 52.8923 17.5602C52.5605 17.2284 52.3328 16.8911 52.3328 16.3848C52.3328 15.8785 52.2965 15.2771 52.6282 14.9454C52.96 14.6136 53.5614 14.4335 54.0677 14.4335C54.574 14.4335 55.0288 14.7602 55.3605 15.0919C55.6923 15.4237 55.9972 15.8785 55.9972 16.3848Z" fill="#F68C1E"/>
</g>
</svg>
