<svg width="30" height="19" viewBox="0 0 30 19" fill="none" xmlns="http://www.w3.org/2000/svg">
<g id="Group">
<path id="Vector" fill-rule="evenodd" clip-rule="evenodd" d="M20.8065 18.0864C25.8839 18.0864 30 14.057 30 9.08643C30 4.11586 25.8839 0.0864258 20.8065 0.0864258C15.729 0.0864258 11.6129 4.11586 11.6129 9.08643C11.6129 14.057 15.729 18.0864 20.8065 18.0864Z" fill="white"/>
<path id="Vector_2" fill-rule="evenodd" clip-rule="evenodd" d="M9.19355 18.0864C14.271 18.0864 18.3871 14.057 18.3871 9.08643C18.3871 4.11586 14.271 0.0864258 9.19355 0.0864258C4.11609 0.0864258 0 4.11586 0 9.08643C0 14.057 4.11609 18.0864 9.19355 18.0864Z" fill="#EB001B"/>
<path id="Intersect" fill-rule="evenodd" clip-rule="evenodd" d="M14.9998 2.1084C12.9328 3.75873 11.6129 6.27168 11.6129 9.08641C11.6129 11.9012 12.9328 14.4141 14.9998 16.0644C17.0668 14.4141 18.3867 11.9012 18.3867 9.08641C18.3867 6.27168 17.0668 3.75873 14.9998 2.1084Z" fill="#FF5F00"/>
</g>
</svg>
