<svg width="25" height="24" viewBox="0 0 25 24" fill="none" xmlns="http://www.w3.org/2000/svg">
<g id="Spotify">
<path id="Vector" d="M12.8216 2.94604C7.85103 2.94604 3.82141 6.97555 3.82141 11.9461C3.82141 16.9169 7.85103 20.946 12.8216 20.946C17.7927 20.946 21.8218 16.9169 21.8218 11.9461C21.8218 6.97587 17.7927 2.94647 12.8215 2.94647L12.8216 2.94604ZM16.949 15.9267C16.7878 16.1911 16.4417 16.2749 16.1773 16.1126C14.0642 14.8219 11.404 14.5295 8.27114 15.2453C7.96925 15.3141 7.66832 15.125 7.59954 14.823C7.53043 14.521 7.71883 14.22 8.02148 14.1512C11.4499 13.3677 14.3907 13.7052 16.7631 15.155C17.0274 15.3173 17.1113 15.6623 16.949 15.9267ZM18.0506 13.4758C17.8475 13.8063 17.4154 13.9105 17.0855 13.7074C14.6662 12.22 10.9785 11.7894 8.11702 12.658C7.74592 12.7701 7.35396 12.561 7.24133 12.1905C7.12956 11.8194 7.33881 11.4282 7.70927 11.3153C10.9779 10.3236 15.0413 10.804 17.8195 12.5112C18.1495 12.7143 18.2537 13.1464 18.0506 13.4759V13.4758ZM18.1452 10.9239C15.2445 9.20101 10.4587 9.04259 7.68917 9.88314C7.24445 10.018 6.77414 9.76696 6.63937 9.32224C6.5046 8.8773 6.75544 8.40732 7.20049 8.27211C10.3797 7.307 15.6647 7.49347 19.0043 9.47603C19.4052 9.71344 19.5363 10.2301 19.2988 10.6295C19.0623 11.0296 18.5443 11.1614 18.1456 10.9239H18.1452Z" fill="white" fill-opacity="0.7"/>
</g>
</svg>
