<svg width="25" height="24" viewBox="0 0 25 24" fill="none" xmlns="http://www.w3.org/2000/svg">
<g id="Twitter">
<path id="Vector" d="M21.3036 6.7259C20.8393 7.34544 20.2779 7.88588 19.6412 8.32635C19.6412 8.48818 19.6412 8.65001 19.6412 8.82084C19.6465 11.7597 18.4728 14.5778 16.3832 16.6433C14.2935 18.7088 11.4628 19.849 8.52562 19.8081C6.82756 19.8139 5.15121 19.4263 3.62792 18.6756C3.54578 18.6397 3.4928 18.5585 3.49311 18.4688L3.4931 18.3699C3.4931 18.2408 3.5977 18.1362 3.72674 18.1362C5.39589 18.081 7.00545 17.5022 8.32771 16.4816C6.8169 16.4512 5.45751 15.5563 4.83184 14.1801C4.80025 14.105 4.81007 14.0187 4.8578 13.9526C4.90552 13.8865 4.98422 13.8501 5.06548 13.8565C5.52465 13.9026 5.98841 13.8599 6.43142 13.7305C4.76359 13.3844 3.51033 11.9999 3.33088 10.3052C3.32451 10.2239 3.36093 10.1452 3.42701 10.0974C3.49308 10.0497 3.57925 10.0398 3.65439 10.0715C4.10196 10.269 4.58512 10.373 5.07427 10.377C3.61281 9.41797 2.98148 7.59359 3.53732 5.93573C3.5947 5.77464 3.73257 5.65562 3.90025 5.62243C4.06793 5.58923 4.24072 5.64675 4.35508 5.77385C6.32727 7.8726 9.03699 9.12316 11.9129 9.26182C11.8392 8.96789 11.803 8.6658 11.805 8.36276C11.8318 6.77376 12.8149 5.35819 14.2941 4.77877C15.7732 4.19935 17.4556 4.57075 18.5538 5.71909C19.3022 5.57646 20.0257 5.32502 20.7014 4.97274C20.7509 4.94184 20.8137 4.94183 20.8632 4.97273C20.8941 5.02225 20.8941 5.08504 20.8632 5.13456C20.536 5.88406 19.9831 6.51269 19.2817 6.9328C19.8959 6.86154 20.4993 6.71661 21.079 6.50115C21.1278 6.46793 21.1919 6.46792 21.2407 6.50114C21.2816 6.51984 21.3122 6.5556 21.3243 6.59891C21.3364 6.64222 21.3288 6.68867 21.3036 6.7259Z" fill="white" fill-opacity="0.7"/>
</g>
</svg>
