<svg width="36" height="12" viewBox="0 0 36 12" fill="none" xmlns="http://www.w3.org/2000/svg">
<g id="Group">
<path id="Union" fill-rule="evenodd" clip-rule="evenodd" d="M26.1666 0.534401C25.5893 0.318474 24.6847 0.0864258 23.5546 0.0864258C20.6748 0.0864258 18.6456 1.53216 18.6285 3.60278C18.6128 5.13506 20.0767 5.98816 21.1826 6.49892C22.3167 7.02029 22.6985 7.35372 22.6925 7.81994C22.6853 8.53432 21.7871 8.86055 20.9494 8.86055C19.7826 8.86055 19.1632 8.69977 18.2058 8.30185L17.8299 8.13216L17.4209 10.518C18.1024 10.8149 19.3603 11.0733 20.6676 11.0864C23.7316 11.0864 25.7209 9.65766 25.743 7.44578C25.7536 6.23336 24.9776 5.31068 23.2966 4.55091C22.2771 4.05754 21.6534 3.72792 21.6603 3.22904C21.6603 2.787 22.1877 2.3123 23.3285 2.3123C24.2829 2.29746 24.9725 2.5049 25.5102 2.72125L25.7719 2.84343L26.1666 0.534401ZM12.6827 10.9282L14.505 0.272257H17.4193L15.596 10.9282H12.6827ZM31.389 0.28268H33.6413L36 10.931H33.2952C33.2952 10.931 33.0283 9.70756 32.9411 9.33467C32.7156 9.33467 31.7742 9.33348 30.8894 9.33235L30.877 9.33234C30.0973 9.33135 29.3644 9.33042 29.2082 9.33042C29.095 9.61847 28.5948 10.931 28.5948 10.931H25.5337L29.8621 1.16633C30.1694 0.471882 30.6909 0.28268 31.389 0.28268ZM30.0464 7.15082C30.2878 6.53697 31.2081 4.17153 31.2081 4.17153C31.1996 4.1854 31.2563 4.0387 31.3337 3.83841L31.3337 3.83828C31.4149 3.62821 31.5188 3.35921 31.5942 3.15467L31.7909 4.07353C31.7909 4.07353 32.3494 6.61673 32.4664 7.15082H30.0464ZM7.3849 7.54646L10.2378 0.280011H13.3249L8.73687 10.9152L5.65279 10.9194L3.04419 1.59933C4.89422 2.52243 6.5497 4.36694 7.08053 6.06975L7.3849 7.54646Z" fill="#F0F0F0"/>
<path id="Vector" fill-rule="evenodd" clip-rule="evenodd" d="M4.73745 0.272949H0.0370346L0 0.494392C3.65663 1.37719 6.07623 3.50847 7.08042 6.0699L6.05835 1.17229C5.88211 0.497361 5.37002 0.296281 4.73745 0.272949Z" fill="#F9A51A"/>
</g>
</svg>
